<svg width="164" height="43" viewBox="0 0 164 43" fill="none" xmlns="http://www.w3.org/2000/svg">
<g filter="url(#filter0_d_38_6)">
<path fill-rule="evenodd" clip-rule="evenodd" d="M10.5953 9.23609C13.3357 5.73387 17.7239 3.46493 22.6698 3.46493C27.6448 3.46493 32.0553 5.76065 34.7924 9.29799C34.6759 9.41181 34.5698 9.52978 34.4737 9.64759C33.9724 10.2645 33.5951 11.059 33.293 11.8659C32.6844 13.4887 32.2202 15.6085 31.7904 17.5935L31.7522 17.7719C31.3234 19.7533 30.9248 21.5959 30.4428 22.9638C30.2263 23.5783 30.021 24.0128 29.8389 24.291C29.6489 24.0105 29.4334 23.5708 29.2052 22.9475C28.6898 21.5403 28.2562 19.6263 27.7967 17.5827L27.7818 17.5157V17.5157C27.3401 15.5527 26.8717 13.4699 26.2876 11.8756C25.9941 11.0747 25.6341 10.2881 25.1632 9.67694C24.701 9.07718 23.9317 8.40029 22.8065 8.40029C21.6884 8.40029 20.9156 9.06983 20.4467 9.66287C19.9667 10.2701 19.5924 11.0534 19.2842 11.8547C18.6633 13.4682 18.1557 15.5789 17.6833 17.5666L17.6346 17.7719C17.1668 19.7409 16.7295 21.5818 16.2331 22.9523C16.0437 23.4757 15.8648 23.8739 15.703 24.1583C15.5448 23.8752 15.3704 23.4797 15.1861 22.9607C14.7099 21.6194 14.2928 19.8301 13.8447 17.9083L13.7663 17.5719C13.3021 15.583 12.7985 13.4685 12.1688 11.85C11.8559 11.0457 11.4733 10.2584 10.9781 9.64838C10.8659 9.5103 10.7385 9.37013 10.5953 9.23609ZM8.93678 11.9253C9.0673 12.1701 9.20537 12.4736 9.34812 12.8406C9.89318 14.2416 10.3549 16.1533 10.8304 18.1905L10.923 18.5875C11.3559 20.4464 11.8062 22.38 12.3367 23.8739C12.6188 24.6684 12.9595 25.4466 13.3977 26.0514C13.8121 26.6235 14.5555 27.3623 15.6986 27.3623C16.8383 27.3623 17.5835 26.627 18.0007 26.0576C18.4426 25.4542 18.7889 24.6769 19.0767 23.8818C19.6285 22.3584 20.0983 20.3794 20.5479 18.4855V18.4854L20.6167 18.1959C21.1011 16.1574 21.5675 14.2419 22.1086 12.8358C22.3592 12.1843 22.5939 11.7305 22.7981 11.449C22.9918 11.7281 23.213 12.1747 23.4476 12.815C23.9631 14.2222 24.3962 16.1361 24.8559 18.1798L24.871 18.2467C25.3125 20.2098 25.7809 22.2926 26.365 23.8867C26.6585 24.6879 27.0185 25.4745 27.4894 26.0855C27.9517 26.6854 28.7209 27.3623 29.8459 27.3623C30.9769 27.3623 31.7434 26.6792 32.2001 26.074C32.6639 25.4599 33.0127 24.6707 33.2944 23.8708C33.8359 22.3344 34.2664 20.3408 34.6769 18.4444V18.4443L34.7357 18.169C35.1778 16.1278 35.602 14.2214 36.1259 12.8246C36.2393 12.5208 36.3511 12.2617 36.4577 12.0441C37.2604 13.7921 37.7056 15.7223 37.7056 17.7513C37.7056 25.6413 30.9741 32.0377 22.6698 32.0377C14.3656 32.0377 7.63379 25.6413 7.63379 17.7513C7.63379 15.6762 8.09941 13.7044 8.93678 11.9253ZM22.6698 0.607666C12.7048 0.607666 4.62659 8.28312 4.62659 17.7513C4.62659 27.2194 12.7048 34.8948 22.6698 34.8948C32.635 34.8948 40.7128 27.2194 40.7128 17.7513C40.7128 8.28312 32.635 0.607666 22.6698 0.607666ZM23.0136 11.2098C23.0136 11.2101 23.01 11.2128 23.003 11.2167C23.01 11.2114 23.0136 11.2095 23.0136 11.2098ZM22.5979 11.2117C22.5909 11.2077 22.5875 11.2049 22.5875 11.2045C22.5875 11.2042 22.591 11.2062 22.5979 11.2117ZM29.6173 24.5623C29.6173 24.5623 29.6205 24.5592 29.627 24.5552C29.6205 24.5605 29.6173 24.5627 29.6173 24.5623ZM30.0545 24.5508C30.0615 24.5548 30.0652 24.5574 30.0652 24.5579C30.0652 24.5583 30.0615 24.5561 30.0545 24.5508ZM15.3904 24.5879C15.3903 24.5875 15.3947 24.5835 15.4034 24.5778C15.3948 24.5853 15.3904 24.5884 15.3904 24.5879ZM15.9994 24.5804C16.008 24.5862 16.0123 24.5901 16.0123 24.5906C16.0123 24.591 16.0079 24.5884 15.9994 24.5804Z" fill="#81818B"/>
<path d="M50.6758 27.9007L46.3004 13.6801H50.1329L52.728 23.9154L55.7452 13.6801H60.0302L63.0479 23.9154L65.6729 13.6801H69.5054L65.0996 27.9007H61.0865L57.8877 17.2639L54.6894 27.9007H50.6758Z" fill="#81818B"/>
<path d="M75.1287 28.2449C73.8414 28.2449 72.7851 28.0533 71.9604 27.6711C71.1361 27.2698 70.5224 26.7442 70.1197 26.0943C69.7176 25.4444 69.5165 24.7277 69.5165 23.9442C69.5165 22.6254 70.0593 21.5549 71.1456 20.733C72.2318 19.9112 73.8619 19.5002 76.0344 19.5002H79.8364V19.1562C79.8364 18.1813 79.5445 17.4646 78.9612 17.0059C78.378 16.5471 77.6535 16.3178 76.7888 16.3178C76.0039 16.3178 75.3198 16.4993 74.7366 16.8625C74.1533 17.2066 73.791 17.7226 73.6503 18.4107H69.8782C69.979 17.3786 70.3413 16.4802 70.9644 15.7157C71.6086 14.9512 72.4334 14.3682 73.4388 13.9668C74.4452 13.5463 75.5713 13.3361 76.8187 13.3361C78.9513 13.3361 80.6307 13.8425 81.8582 14.8556C83.0851 15.8686 83.6988 17.3022 83.6988 19.1562V27.9007H80.4092L80.0475 25.6072C79.6049 26.3717 78.9812 27.0022 78.1769 27.4995C77.392 27.9963 76.3761 28.2449 75.1287 28.2449ZM76.0039 25.3776C77.1106 25.3776 77.9653 25.0334 78.5685 24.3455C79.1922 23.6575 79.5849 22.8067 79.7461 21.7938H76.4565C75.4306 21.7938 74.6967 21.9754 74.2536 22.3386C73.8115 22.6824 73.59 23.1129 73.59 23.6287C73.59 24.1831 73.8115 24.6131 74.2536 24.9188C74.6967 25.2245 75.2794 25.3776 76.0039 25.3776Z" fill="#81818B"/>
<path d="M89.7788 27.9007L84.2874 13.6801H88.3304L92.1324 24.4317L95.9345 13.6801H99.978L94.4561 27.9007H89.7788Z" fill="#81818B"/>
<path d="M107.742 28.2449C106.234 28.2449 104.896 27.9388 103.729 27.3273C102.563 26.7155 101.647 25.8554 100.983 24.7467C100.319 23.6385 99.9879 22.3577 99.9879 20.905C99.9879 19.4333 100.31 18.124 100.953 16.9772C101.617 15.8304 102.522 14.9416 103.669 14.3108C104.835 13.661 106.203 13.3361 107.773 13.3361C109.241 13.3361 110.539 13.6419 111.665 14.2535C112.792 14.8651 113.667 15.7061 114.29 16.7765C114.934 17.8277 115.256 19.0032 115.256 20.303C115.256 20.5132 115.246 20.733 115.226 20.9624C115.226 21.1918 115.216 21.4307 115.196 21.6792H103.82C103.9 22.7877 104.303 23.6575 105.027 24.2884C105.771 24.9188 106.666 25.2343 107.713 25.2343C108.497 25.2343 109.151 25.0719 109.674 24.7467C110.216 24.403 110.619 23.9632 110.881 23.4279H114.803C114.522 24.3264 114.049 25.1485 113.385 25.8939C112.741 26.6199 111.937 27.1933 110.971 27.614C110.026 28.0343 108.949 28.2449 107.742 28.2449ZM107.773 16.3178C106.828 16.3178 105.992 16.5758 105.268 17.0919C104.544 17.5888 104.081 18.3534 103.88 19.3855H111.333C111.273 18.4489 110.911 17.7035 110.247 17.1492C109.583 16.5949 108.759 16.3178 107.773 16.3178Z" fill="#81818B"/>
<path d="M117.298 27.9007V7.25781H121.16V27.9007H117.298Z" fill="#81818B"/>
<path d="M131.171 28.2449C129.663 28.2449 128.325 27.9388 127.158 27.3273C125.992 26.7155 125.077 25.8554 124.413 24.7467C123.748 23.6385 123.417 22.3577 123.417 20.905C123.417 19.4333 123.739 18.124 124.382 16.9772C125.046 15.8304 125.951 14.9416 127.098 14.3108C128.265 13.661 129.633 13.3361 131.202 13.3361C132.67 13.3361 133.968 13.6419 135.095 14.2535C136.221 14.8651 137.097 15.7061 137.72 16.7765C138.363 17.8277 138.686 19.0032 138.686 20.303C138.686 20.5132 138.675 20.733 138.655 20.9624C138.655 21.1918 138.645 21.4307 138.625 21.6792H127.249C127.329 22.7877 127.732 23.6575 128.456 24.2884C129.2 24.9188 130.096 25.2343 131.142 25.2343C131.926 25.2343 132.58 25.0719 133.103 24.7467C133.646 24.403 134.048 23.9632 134.31 23.4279H138.233C137.951 24.3264 137.478 25.1485 136.815 25.8939C136.17 26.6199 135.366 27.1933 134.4 27.614C133.455 28.0343 132.379 28.2449 131.171 28.2449ZM131.202 16.3178C130.257 16.3178 129.422 16.5758 128.697 17.0919C127.973 17.5888 127.511 18.3534 127.309 19.3855H134.762C134.702 18.4489 134.34 17.7035 133.676 17.1492C133.012 16.5949 132.188 16.3178 131.202 16.3178Z" fill="#81818B"/>
<path d="M146.913 28.2449C145.585 28.2449 144.418 28.044 143.413 27.6428C142.406 27.222 141.602 26.6487 140.998 25.9222C140.395 25.1962 140.033 24.3552 139.912 23.3996H143.804C143.925 23.9535 144.248 24.4317 144.77 24.833C145.313 25.2152 146.007 25.4064 146.852 25.4064C147.697 25.4064 148.311 25.244 148.693 24.9188C149.095 24.5941 149.296 24.2212 149.296 23.8008C149.296 23.189 149.015 22.778 148.452 22.5678C147.888 22.3386 147.104 22.1188 146.098 21.9085C145.455 21.7747 144.801 21.6123 144.137 21.4211C143.473 21.23 142.859 20.991 142.296 20.7044C141.753 20.3985 141.31 20.0163 140.968 19.5575C140.626 19.0797 140.455 18.4967 140.455 17.8086C140.455 16.5471 140.978 15.4864 142.025 14.6262C143.09 13.7661 144.579 13.3361 146.49 13.3361C148.261 13.3361 149.669 13.7279 150.715 14.5115C151.781 15.2952 152.414 16.3751 152.616 17.7513H148.965C148.743 16.7001 147.908 16.1744 146.46 16.1744C145.736 16.1744 145.173 16.3082 144.77 16.5758C144.388 16.8434 144.197 17.1779 144.197 17.5793C144.197 17.9998 144.489 18.3343 145.072 18.5828C145.656 18.8312 146.43 19.0606 147.395 19.2709C148.441 19.5002 149.397 19.7582 150.262 20.0449C151.147 20.3125 151.851 20.7235 152.375 21.2778C152.897 21.8129 153.159 22.5869 153.159 23.6C153.179 24.4795 152.937 25.2723 152.435 25.9797C151.932 26.6867 151.208 27.2411 150.262 27.6428C149.317 28.044 148.2 28.2449 146.913 28.2449Z" fill="#81818B"/>
<path d="M161.559 28.2449C160.232 28.2449 159.065 28.044 158.059 27.6428C157.053 27.222 156.249 26.6487 155.645 25.9222C155.042 25.1962 154.679 24.3552 154.559 23.3996H158.451C158.572 23.9535 158.894 24.4317 159.417 24.833C159.96 25.2152 160.654 25.4064 161.499 25.4064C162.344 25.4064 162.958 25.244 163.34 24.9188C163.742 24.5941 163.943 24.2212 163.943 23.8008C163.943 23.189 163.662 22.778 163.098 22.5678C162.535 22.3386 161.751 22.1188 160.745 21.9085C160.101 21.7747 159.447 21.6123 158.783 21.4211C158.12 21.23 157.506 20.991 156.943 20.7044C156.4 20.3985 155.957 20.0163 155.615 19.5575C155.273 19.0797 155.102 18.4967 155.102 17.8086C155.102 16.5471 155.625 15.4864 156.671 14.6262C157.737 13.7661 159.226 13.3361 161.137 13.3361C162.907 13.3361 164.315 13.7279 165.361 14.5115C166.427 15.2952 167.061 16.3751 167.263 17.7513H163.611C163.39 16.7001 162.555 16.1744 161.107 16.1744C160.382 16.1744 159.819 16.3082 159.417 16.5758C159.035 16.8434 158.844 17.1779 158.844 17.5793C158.844 17.9998 159.135 18.3343 159.719 18.5828C160.302 18.8312 161.076 19.0606 162.042 19.2709C163.088 19.5002 164.044 19.7582 164.909 20.0449C165.794 20.3125 166.498 20.7235 167.021 21.2778C167.544 21.8129 167.806 22.5869 167.806 23.6C167.826 24.4795 167.584 25.2723 167.081 25.9797C166.578 26.6867 165.854 27.2411 164.909 27.6428C163.963 28.044 162.847 28.2449 161.559 28.2449Z" fill="#81818B"/>
</g>
<defs>
<filter id="filter0_d_38_6" x="0.626587" y="0.607666" width="171.18" height="42.2871" filterUnits="userSpaceOnUse" color-interpolation-filters="sRGB">
<feFlood flood-opacity="0" result="BackgroundImageFix"/>
<feColorMatrix in="SourceAlpha" type="matrix" values="0 0 0 0 0 0 0 0 0 0 0 0 0 0 0 0 0 0 127 0" result="hardAlpha"/>
<feOffset dy="4"/>
<feGaussianBlur stdDeviation="2"/>
<feComposite in2="hardAlpha" operator="out"/>
<feColorMatrix type="matrix" values="0 0 0 0 0 0 0 0 0 0 0 0 0 0 0 0 0 0 0.25 0"/>
<feBlend mode="normal" in2="BackgroundImageFix" result="effect1_dropShadow_38_6"/>
<feBlend mode="normal" in="SourceGraphic" in2="effect1_dropShadow_38_6" result="shape"/>
</filter>
</defs>
</svg>
