<svg width="1490" height="1699" viewBox="0 0 1490 1699" fill="none" xmlns="http://www.w3.org/2000/svg">
<path d="M1489.67 1540.23L1438.93 394.467C1438.04 309.882 1368.58 241.268 1283.34 241.268H1025.45C1004.52 106.268 886.593 0 744.689 0C602.747 0 484.784 106.268 463.85 241.268H206.313C121.096 241.268 51.664 309.884 50.77 394.47L0.064 1540.19C0.022 1541.16 0 1542.15 0 1543.12C0 1628.66 69.797 1698.27 155.592 1698.27H1334.15C1419.94 1698.27 1489.73 1628.68 1489.73 1543.14C1489.73 1542.17 1489.71 1541.2 1489.67 1540.23ZM744.689 132.141C813.435 132.141 871.63 178.267 890.306 241.267H598.998C617.684 178.268 675.908 132.141 744.689 132.141ZM1334.15 1566.27H155.592C142.781 1566.27 132.675 1556.62 132.162 1544.21L182.836 399.158C182.879 398.187 182.9 397.047 182.9 396.074C182.9 383.379 193.183 373.268 206.312 373.268H460V614.727C460 651.217 489.51 680.797 526 680.797C562.49 680.797 592 651.217 592 614.727V373.268H896V614.727C896 651.217 925.51 680.797 962 680.797C998.49 680.797 1028 651.217 1028 614.727V373.268H1283.34C1296.5 373.268 1306.8 383.363 1306.8 396.058C1306.8 397.032 1306.82 398.081 1306.86 399.056L1357.57 1544.17C1357.06 1556.59 1346.95 1566.27 1334.15 1566.27Z" fill="white" fill-opacity="0.7"/>
<path d="M-0.435511 1540.17L-0.435534 1540.17C-0.477834 1541.15 -0.5 1542.14 -0.5 1543.12C-0.5 1628.94 69.5222 1698.77 155.592 1698.77H1334.15C1420.21 1698.77 1490.23 1628.96 1490.23 1543.14C1490.23 1542.81 1490.23 1542.47 1490.23 1542.14C1490.22 1541.5 1490.2 1540.85 1490.17 1540.2L1439.43 394.462C1438.54 309.601 1368.86 240.768 1283.34 240.768H1025.88C1004.73 105.733 886.699 -0.5 744.689 -0.5C602.642 -0.5 484.573 105.733 463.422 240.768H206.313C120.826 240.768 51.1715 309.598 50.2701 394.456C50.2701 394.459 50.2701 394.462 50.27 394.465L-0.435511 1540.17ZM744.689 132.641C812.972 132.641 870.815 178.3 889.635 240.767H599.669C618.499 178.302 676.371 132.641 744.689 132.641ZM1334.15 1565.77H155.592C143.05 1565.77 133.175 1556.34 132.662 1544.21C132.662 1544.2 132.662 1544.19 132.662 1544.19L183.336 399.18C183.379 398.2 183.4 397.053 183.4 396.074C183.4 383.666 193.448 373.768 206.312 373.768H459.5V614.727C459.5 651.492 489.233 681.297 526 681.297C562.767 681.297 592.5 651.492 592.5 614.727V373.768H895.5V614.727C895.5 651.492 925.233 681.297 962 681.297C998.767 681.297 1028.5 651.492 1028.5 614.727V373.768H1283.34C1296.23 373.768 1306.3 383.651 1306.3 396.058C1306.3 397.039 1306.32 398.095 1306.36 399.078L1357.07 1544.15C1357.07 1544.16 1357.07 1544.17 1357.07 1544.17C1356.56 1556.3 1346.68 1565.77 1334.15 1565.77Z" stroke="white" stroke-opacity="0.7"/>
</svg>
